<?xml version="1.0" encoding="utf-8"?>
<!-- Generator: Adobe Illustrator 21.0.0, SVG Export Plug-In . SVG Version: 6.00 Build 0)  -->
<svg version="1.1" id="Layer_1" xmlns="http://www.w3.org/2000/svg" xmlns:xlink="http://www.w3.org/1999/xlink" x="0px" y="0px"
	 viewBox="0 0 1000 314.8" style="enable-background:new 0 0 1000 314.8;" xml:space="preserve">
<style type="text/css">
	.st0{fill:#104C72;}
	.st1{fill:#1B75BC;}
	.st2{fill:#FFFFFF;}
</style>
<g>
	
		<rect x="130" y="35.8" transform="matrix(0.7071 -0.7071 0.7071 0.7071 -7.2473 150.6596)" class="st0" width="96.5" height="96.5"/>
	
		<rect x="130" y="176.2" transform="matrix(0.7071 -0.7071 0.7071 0.7071 -106.5046 191.7733)" class="st0" width="96.5" height="96.5"/>
	
		<rect x="201.7" y="106.3" transform="matrix(0.7071 -0.7071 0.7071 0.7071 -36.0786 222.061)" class="st1" width="96.5" height="96.5"/>
	<g>
		<g>
			<path class="st2" d="M166.5,76c0-12.3,0-14.6-0.2-17.1c-0.2-2.8-0.8-4-3.5-4.6c-0.6-0.2-2-0.2-3.2-0.2c-0.9,0-1.4-0.2-1.4-0.7
				c0-0.6,0.6-0.7,1.8-0.7c4.3,0,9.4,0.2,11,0.2c4,0,7.1-0.2,9.9-0.2c14.6,0,17.2,7.8,17.2,12.1c0,6.6-3.8,10.6-8.3,14.2
				c6.6,2.3,14.7,8,14.7,17.5c0,8.7-6.7,17.6-21.6,17.6c-1,0-3.3-0.2-5.7-0.2c-2.4-0.2-4.9-0.2-6.1-0.2c-0.9,0-2.7,0-4.6,0.1
				c-1.9,0-4,0.2-5.6,0.2c-1.1,0-1.6-0.2-1.6-0.8c0-0.4,0.3-0.6,1.3-0.6c1.2,0,2.2-0.2,2.9-0.3c1.6-0.3,2-2.1,2.3-4.4
				c0.4-3.4,0.4-9.8,0.4-17.2V76z M176.2,77.4c0,0.6,0.2,0.8,0.6,0.9c0.7,0.2,1.9,0.2,3.8,0.2c2.7,0,4.4-0.3,5.8-1.5
				c2.1-1.7,3.3-4.6,3.3-8.6c0-5.4-3.2-12.5-10.1-12.5c-1.1,0-1.9,0-2.7,0.2c-0.6,0.2-0.7,0.5-0.7,1.4V77.4z M186.9,83.9
				c-1.7-1.2-3.6-1.8-6.7-1.9c-1.5-0.1-2.3-0.1-3.5-0.1c-0.3,0-0.5,0.2-0.5,0.6v19.2c0,5.3,0.2,6.7,2.8,7.8c2.2,0.9,4,1,5.9,1
				c3.6,0,9.8-1.9,9.8-10.4C194.8,95,193.1,88.2,186.9,83.9z"/>
		</g>
	</g>
	<g>
		<g>
			<path class="st2" d="M250.5,160.1c0,8.8,0,13.2,1.5,14.5c1.2,1.1,4,1.5,9.5,1.5c3.8,0,6.6-0.1,8.3-1.9c0.9-0.9,1.6-2.8,1.8-4.1
				c0.1-0.6,0.2-1.1,0.8-1.1c0.5,0,0.6,0.7,0.6,1.5c0,0.8-0.5,5.9-1.1,7.9c-0.5,1.5-0.8,1.9-4.5,1.9c-5.1,0-9.2-0.1-12.8-0.2
				c-3.6-0.1-6.6-0.2-9.5-0.2c-0.8,0-2.3,0.1-4,0.1c-1.7,0.1-3.5,0.2-4.9,0.2c-0.9,0-1.4-0.2-1.4-0.7c0-0.3,0.2-0.7,1.1-0.7
				c1.1,0,1.9-0.1,2.5-0.2c1.5-0.3,1.9-1.6,2.1-3.6c0.3-2.9,0.3-8.3,0.3-14.6v-12.1c0-10.4,0-12.4-0.1-14.6
				c-0.2-2.3-0.8-3.1-3.1-3.7c-0.6-0.2-1.5-0.2-2.3-0.2c-0.8,0-1.2-0.2-1.2-0.7c0-0.5,0.5-0.6,1.5-0.6c3.3,0,7.8,0.2,9.8,0.2
				c1.7,0,7.5-0.2,10.3-0.2c1.1,0,1.5,0.2,1.5,0.6c0,0.5-0.4,0.7-1.3,0.7c-0.8,0-1.9,0.1-2.7,0.2c-1.9,0.3-2.5,1.3-2.7,3.7
				c-0.2,2.2-0.2,4.1-0.2,14.6V160.1z"/>
		</g>
	</g>
	<g>
		<g>
			<path class="st2" d="M163,249.4c-1.1-0.5-1.4-0.8-1.4-2.3c0-3.7,0.3-8,0.4-9.1c0-1.1,0.3-1.8,0.9-1.8c0.6,0,0.7,0.6,0.7,1.1
				c0,0.9,0.2,2.3,0.6,3.6c1.5,5.1,6.9,6.8,11.3,6.8c6.1,0,9.9-3.9,9.9-8.7c0-3-0.7-6-7-9.7l-4.1-2.4c-8.4-4.9-11.2-9.5-11.2-15.6
				c0-8.4,8.1-13.8,18-13.8c4.6,0,8.3,0.6,10.1,1.1c0.6,0.2,1,0.4,1,0.9c0,0.9-0.2,2.8-0.2,8.3c0,1.5-0.3,2.2-0.9,2.2
				c-0.5,0-0.7-0.4-0.7-1.2c0-0.6-0.3-2.7-1.9-4.5c-1.1-1.3-3.3-3.2-7.9-3.2c-5.1,0-9.7,2.7-9.7,7.4c0,3.1,1.1,5.5,7.5,9.1l2.9,1.6
				c9.4,5.2,12.3,10.4,12.3,16.7c0,5.1-1.9,9.2-7.1,12.9c-3.4,2.4-8.1,2.8-11.9,2.8C170.5,251.1,166.1,250.7,163,249.4z"/>
		</g>
	</g>
</g>
<path class="st2" d="M341.5,0c0,0,0.1,1.2,0.2,3.5c0.1,2.3,0.2,5.6,0.4,9.8c0.3,8.4,0.7,20.5,1.1,35c0.2,7.2,0.4,15.1,0.5,23.4
	c0.1,8.3,0.3,17,0.4,26.1c0.1,9,0.2,18.4,0.2,27.9c0,9.5,0.1,19.1,0.1,28.8c0,9.6-0.1,19.3-0.1,28.8c0,9.5-0.2,18.8-0.2,27.9
	c-0.1,9-0.2,17.8-0.4,26.1c-0.1,8.3-0.3,16.1-0.5,23.4c-0.3,14.5-0.8,26.5-1.1,35c-0.2,4.2-0.3,7.5-0.4,9.8
	c-0.1,2.3-0.2,3.5-0.2,3.5s-0.1-1.2-0.2-3.5c-0.1-2.3-0.2-5.6-0.4-9.8c-0.3-8.4-0.7-20.5-1.1-35c-0.2-7.2-0.4-15.1-0.5-23.4
	c-0.1-8.3-0.3-17-0.4-26.1c-0.1-9-0.2-18.4-0.2-27.9c0-9.5-0.1-19.1-0.1-28.8c0-9.6,0.1-19.3,0.1-28.8c0-9.5,0.2-18.8,0.2-27.9
	c0.1-9,0.2-17.8,0.4-26.1c0.1-8.3,0.3-16.1,0.5-23.4c0.3-14.5,0.8-26.5,1.1-35c0.2-4.2,0.3-7.5,0.4-9.8C341.5,1.2,341.5,0,341.5,0z"
	/>
<g>
	<g>
		<g>
			<path class="st2" d="M506.1,211.2c2.3,1.3,5.8,2.5,9.4,2.5c4.6,0,7.1-2.1,7.1-5.3c0-3-2-4.7-6.9-6.5c-6.4-2.3-10.5-5.7-10.5-11.3
				c0-6.4,5.3-11.2,13.8-11.2c4.2,0,7.3,0.9,9.4,2l-1.7,5.7c-1.4-0.8-4.1-1.9-7.8-1.9c-4.5,0-6.5,2.4-6.5,4.7c0,3,2.3,4.4,7.5,6.4
				c6.8,2.5,10.1,6,10.1,11.6c0,6.2-4.7,11.7-14.8,11.7c-4.1,0-8.4-1.2-10.5-2.4L506.1,211.2z"/>
			<path class="st2" d="M587.1,199.1c0,13.1-7.9,20.5-18.7,20.5c-11,0-17.9-8.4-17.9-19.8c0-12,7.5-20.4,18.5-20.4
				C580.4,179.3,587.1,188,587.1,199.1z M558,199.6c0,7.9,4,14.2,10.8,14.2c6.9,0,10.8-6.4,10.8-14.5c0-7.3-3.6-14.3-10.8-14.3
				C561.7,185.1,558,191.6,558,199.6z"/>
			<path class="st2" d="M637.4,217.8c-1.7,0.9-5.4,1.7-10.1,1.7c-12.4,0-19.9-7.8-19.9-19.6c0-12.8,8.9-20.6,20.8-20.6
				c4.7,0,8,1,9.5,1.7l-1.6,5.7c-1.9-0.8-4.4-1.5-7.6-1.5c-7.9,0-13.7,5-13.7,14.3c0,8.6,5,14.1,13.6,14.1c2.9,0,5.9-0.6,7.8-1.4
				L637.4,217.8z"/>
			<path class="st2" d="M666.7,180v39h-7.1v-39H666.7z"/>
			<path class="st2" d="M712.9,201.7h-14.7v11.5h16.4v5.8h-23.6v-39h22.7v5.8h-15.6v10.1h14.7V201.7z"/>
			<path class="st2" d="M745.2,185.9H734v-6h29.5v6h-11.2v33h-7.1V185.9z"/>
			<path class="st2" d="M794,219v-16.3L781.7,180h8.1l4.7,10c1.3,2.9,2.3,5.1,3.4,7.8h0.1c1-2.5,2.1-4.9,3.4-7.8l4.7-10h8l-13,22.6
				V219H794z"/>
		</g>
	</g>
	<g>
		<path class="st2" d="M384.3,133c0-9.5,0-11.2-0.1-13.2c-0.1-2.1-0.6-3.1-2.7-3.5c-0.5-0.1-1.6-0.2-2.4-0.2c-0.7,0-1.1-0.1-1.1-0.6
			s0.4-0.6,1.4-0.6c3.3,0,7.2,0.2,8.5,0.2c3.1,0,5.5-0.2,7.6-0.2c11.3,0,13.3,6,13.3,9.3c0,5.1-2.9,8.2-6.4,10.9
			c5.1,1.7,11.3,6.2,11.3,13.4c0,6.7-5.2,13.6-16.6,13.6c-0.7,0-2.6-0.1-4.4-0.2c-1.9-0.1-3.7-0.2-4.7-0.2c-0.7,0-2.1,0-3.5,0.1
			c-1.4,0-3.1,0.1-4.3,0.1c-0.8,0-1.2-0.2-1.2-0.6c0-0.3,0.2-0.5,1-0.5c0.9,0,1.7-0.1,2.2-0.2c1.2-0.2,1.6-1.6,1.8-3.4
			c0.3-2.6,0.3-7.5,0.3-13.3V133z M391.8,134c0,0.5,0.2,0.6,0.4,0.7c0.6,0.1,1.5,0.2,2.9,0.2c2.1,0,3.4-0.2,4.5-1.2
			c1.6-1.3,2.6-3.5,2.6-6.6c0-4.2-2.4-9.6-7.8-9.6c-0.9,0-1.4,0-2.1,0.1c-0.4,0.1-0.6,0.4-0.6,1.1V134z M400,139
			c-1.3-0.9-2.7-1.4-5.2-1.5c-1.1-0.1-1.7-0.1-2.7-0.1c-0.2,0-0.4,0.1-0.4,0.4v14.8c0,4.1,0.2,5.2,2.2,6c1.7,0.7,3.1,0.7,4.5,0.7
			c2.8,0,7.5-1.5,7.5-8C406,147.5,404.7,142.3,400,139z"/>
		<path class="st2" d="M433.2,146.6c0,6.8,0,10.1,1.2,11.1c0.9,0.8,3.1,1.1,7.3,1.1c2.9,0,5-0.1,6.4-1.5c0.7-0.7,1.2-2.2,1.4-3.2
			c0.1-0.5,0.2-0.8,0.6-0.8c0.4,0,0.5,0.6,0.5,1.2s-0.4,4.5-0.8,6.1c-0.4,1.2-0.6,1.4-3.5,1.4c-3.9,0-7.1-0.1-9.8-0.2
			c-2.7-0.1-5-0.1-7.3-0.1c-0.6,0-1.8,0.1-3.1,0.1c-1.3,0.1-2.7,0.1-3.8,0.1c-0.7,0-1.1-0.2-1.1-0.6c0-0.2,0.2-0.6,0.9-0.6
			c0.8,0,1.4-0.1,1.9-0.2c1.1-0.2,1.4-1.2,1.6-2.8c0.2-2.2,0.2-6.4,0.2-11.3v-9.3c0-8,0-9.5-0.1-11.2c-0.1-1.8-0.6-2.4-2.4-2.9
			c-0.4-0.1-1.1-0.2-1.8-0.2c-0.6,0-0.9-0.2-0.9-0.6c0-0.4,0.4-0.5,1.2-0.5c2.6,0,6,0.1,7.5,0.1c1.3,0,5.8-0.1,7.9-0.1
			c0.8,0,1.2,0.1,1.2,0.5c0,0.4-0.3,0.6-1,0.6c-0.6,0-1.5,0.1-2.1,0.2c-1.5,0.2-1.9,1-2.1,2.9c-0.1,1.7-0.1,3.2-0.1,11.2V146.6z"/>
		<path class="st2" d="M452.9,141.9c0-9,6.3-20.7,23-20.7c13.8,0,22.4,7.7,22.4,19.8c0,12.1-8.8,21.7-23,21.7
			C459.4,162.7,452.9,151.3,452.9,141.9z M490.2,142.9c0-11.7-7-18.9-15.9-18.9c-6.1,0-13.3,3.2-13.3,16.3
			c0,10.9,6.2,19.5,16.6,19.5C481.5,159.8,490.2,158,490.2,142.9z"/>
		<path class="st2" d="M511.3,156.9c-5.4-4.5-6.8-10.5-6.8-15.6c0-3.6,1.2-9.8,6.4-14.5c4-3.5,9.2-5.6,17.4-5.6c3.4,0,5.5,0.2,8,0.6
			c2.1,0.3,3.9,0.7,5.5,0.9c0.6,0.1,0.8,0.3,0.8,0.6c0,0.4-0.1,1.1-0.2,2.9c-0.1,1.7-0.1,4.7-0.2,5.7c-0.1,0.7-0.2,1.3-0.7,1.3
			c-0.4,0-0.6-0.4-0.6-1.1c-0.1-1.7-0.7-3.5-2.1-4.9c-1.9-1.8-5.5-3.1-10.6-3.1c-4.8,0-7.8,0.9-10.3,3c-4,3.5-5,8.6-5,13.8
			c0,12.6,9.7,18.6,17.1,18.6c4.9,0,7.5-0.4,9.7-2.8c0.9-1.1,1.7-2.6,1.9-3.5c0.1-0.8,0.2-1.1,0.7-1.1c0.4,0,0.6,0.5,0.6,0.9
			c0,0.6-0.6,5.2-1.2,7c-0.2,0.9-0.5,1.2-1.4,1.6c-2.2,0.9-6.3,1.2-9.9,1.2C522.6,162.7,516.3,161.1,511.3,156.9z"/>
		<path class="st2" d="M561.5,139.6h0.2c1.9-2,9.8-9.8,11.5-11.6c1.6-1.7,2.7-3,2.7-3.9c0-0.6-0.2-0.9-0.7-1.1
			c-0.5-0.1-0.7-0.2-0.7-0.6c0-0.4,0.3-0.5,0.9-0.5c1.2,0,4.2,0.1,5.7,0.1c1.7,0,4.7-0.1,6.4-0.1c0.6,0,0.9,0.1,0.9,0.5
			c0,0.4-0.3,0.6-0.8,0.6c-0.8,0-2.2,0.2-3.2,0.6c-1.7,0.6-3.5,1.7-5.8,3.9c-1.7,1.6-9.9,9.3-11.6,11.3c1.9,2.5,12.7,13.7,14.8,15.7
			c2.4,2.2,4.5,4.5,7.5,5.7c1.6,0.7,2.7,0.7,3.4,0.7c0.4,0,0.7,0.2,0.7,0.6c0,0.4-0.3,0.6-1.3,0.6h-4.8c-1.6,0-2.6,0-3.8-0.1
			c-2.9-0.2-4.7-1.4-7.1-3.4c-2.4-2.1-12.9-14.3-14.1-15.9l-0.6-0.7h-0.2v4.8c0,4.9,0,9,0.1,11.3c0.1,1.5,0.6,2.5,2,2.7
			c0.7,0.1,2,0.2,2.7,0.2c0.4,0,0.7,0.3,0.7,0.6c0,0.4-0.4,0.6-1.1,0.6c-3.1,0-7-0.2-8.3-0.2c-1.2,0-4.7,0.2-6.9,0.2
			c-0.7,0-1.1-0.2-1.1-0.6c0-0.2,0.2-0.6,0.9-0.6c0.8,0,1.4-0.1,1.9-0.2c1.1-0.2,1.4-1.2,1.6-2.8c0.2-2.2,0.2-6.4,0.2-11.3v-9.3
			c0-8,0-9.5-0.1-11.2c-0.1-1.8-0.6-2.4-2.4-2.9c-0.4-0.1-1.4-0.2-2.2-0.2c-0.6,0-0.9-0.2-0.9-0.6c0-0.4,0.4-0.5,1.2-0.5
			c2.9,0,6.3,0.1,7.7,0.1s5.2-0.1,7-0.1c0.8,0,1.2,0.1,1.2,0.5c0,0.4-0.3,0.6-0.7,0.6c-0.6,0-0.9,0.1-1.6,0.2
			c-1.5,0.2-1.9,1-2.1,2.9c-0.1,1.7-0.1,3.2-0.1,11.2V139.6z"/>
		<path class="st2" d="M598.3,156.9c-5.4-4.5-6.8-10.5-6.8-15.6c0-3.6,1.2-9.8,6.4-14.5c4-3.5,9.2-5.6,17.4-5.6c3.4,0,5.5,0.2,8,0.6
			c2.1,0.3,3.9,0.7,5.5,0.9c0.6,0.1,0.8,0.3,0.8,0.6c0,0.4-0.1,1.1-0.2,2.9c-0.1,1.7-0.1,4.7-0.2,5.7c-0.1,0.7-0.2,1.3-0.7,1.3
			c-0.4,0-0.6-0.4-0.6-1.1c-0.1-1.7-0.7-3.5-2.1-4.9c-1.9-1.8-5.5-3.1-10.6-3.1c-4.8,0-7.8,0.9-10.3,3c-4,3.5-5,8.6-5,13.8
			c0,12.6,9.7,18.6,17.1,18.6c4.9,0,7.5-0.4,9.7-2.8c0.9-1.1,1.7-2.6,1.9-3.5c0.1-0.8,0.2-1.1,0.7-1.1c0.4,0,0.6,0.5,0.6,0.9
			c0,0.6-0.6,5.2-1.2,7c-0.2,0.9-0.5,1.2-1.4,1.6c-2.2,0.9-6.3,1.2-9.9,1.2C609.6,162.7,603.3,161.1,598.3,156.9z"/>
		<path class="st2" d="M669.7,139.2c0.1,0,0.3-0.1,0.3-0.4v-1.1c0-8-0.1-10-0.1-11.6c-0.1-1.8-0.6-2.4-2.4-2.9
			c-0.4-0.1-1.4-0.2-2.1-0.2c-0.6,0-0.9-0.2-0.9-0.6c0-0.4,0.4-0.5,1.2-0.5c2.9,0,6.8,0.1,8.2,0.1c1.3,0,4.9-0.1,7-0.1
			c0.8,0,1.2,0.1,1.2,0.5c0,0.4-0.4,0.6-1,0.6c-0.4,0-0.9,0.1-1.6,0.2c-1.4,0.2-1.9,1-2,2.9c-0.1,1.7-0.1,3.2-0.1,11.2v9.3
			c0,4.9,0,9,0.2,11.3c0.2,1.5,0.5,2.5,2.2,2.7c0.7,0.1,1.9,0.2,2.8,0.2c0.6,0,0.9,0.3,0.9,0.6c0,0.4-0.4,0.6-1.1,0.6
			c-3.5,0-7.2-0.2-8.7-0.2c-1.2,0-5.1,0.2-7.2,0.2c-0.7,0-1.2-0.2-1.2-0.6c0-0.2,0.2-0.6,0.9-0.6c0.9,0,1.5-0.1,2-0.2
			c1.1-0.2,1.4-1.2,1.6-2.8c0.2-2.2,0.2-6.3,0.2-11.1v-4c0-0.2-0.2-0.3-0.3-0.3H649c-0.2,0-0.4,0.1-0.4,0.3v4
			c0,4.9,0.1,8.9,0.3,11.2c0.2,1.5,0.5,2.5,2.1,2.7c0.7,0.1,2,0.2,2.8,0.2c0.6,0,0.9,0.3,0.9,0.6c0,0.4-0.4,0.6-1.1,0.6
			c-3.5,0-7.3-0.2-8.9-0.2c-1.2,0-4.9,0.2-7,0.2c-0.7,0-1.1-0.2-1.1-0.6c0-0.2,0.2-0.6,0.9-0.6c0.8,0,1.4-0.1,1.9-0.2
			c1.1-0.2,1.4-1.2,1.6-2.8c0.2-2.2,0.2-6.4,0.2-11.3v-9.3c0-8,0-9.5-0.1-11.2c-0.1-1.8-0.6-2.4-2.4-2.9c-0.4-0.1-1.4-0.2-2.2-0.2
			c-0.6,0-0.9-0.2-0.9-0.6c0-0.4,0.4-0.5,1.2-0.5c2.9,0,6.5,0.1,8,0.1c1.3,0,5.1-0.1,7.3-0.1c0.7,0,1.1,0.1,1.1,0.5
			c0,0.4-0.3,0.6-1,0.6c-0.4,0-0.9,0.1-1.6,0.2c-1.5,0.2-1.9,1-2.1,2.9c-0.1,1.7-0.1,3.6-0.1,11.6v1.1c0,0.3,0.2,0.4,0.4,0.4H669.7z
			"/>
		<path class="st2" d="M697.7,148.7c-0.3,0-0.4,0.1-0.5,0.4l-2.9,7.1c-0.6,1.3-0.8,2.6-0.8,3.2c0,0.9,0.5,1.5,2.2,1.5h0.8
			c0.7,0,0.8,0.2,0.8,0.6c0,0.4-0.3,0.6-0.9,0.6c-1.8,0-4.4-0.2-6.1-0.2c-0.6,0-3.5,0.2-6.4,0.2c-0.7,0-1-0.1-1-0.6
			c0-0.3,0.2-0.6,0.6-0.6c0.5,0,1.1-0.1,1.6-0.1c2.5-0.4,3.4-2,4.5-4.7l14.3-33.3c0.6-1.5,1.1-2.1,1.6-2.1c0.8,0,1.1,0.5,1.6,1.7
			c1.3,2.9,10.5,24.6,13.9,32.6c2.1,4.8,3.7,5.5,4.7,5.7c0.8,0.1,1.4,0.2,2.1,0.2c0.5,0,0.7,0.2,0.7,0.6c0,0.4-0.3,0.6-2.4,0.6
			c-1.9,0-5.9,0-10.5-0.1c-1-0.1-1.6-0.1-1.6-0.4c0-0.3,0.1-0.5,0.7-0.6c0.4-0.1,0.7-0.6,0.5-1.2l-4.2-10.6
			c-0.1-0.3-0.3-0.4-0.6-0.4H697.7z M709.4,145.7c0.2,0,0.3-0.1,0.2-0.3l-5.2-13.4c-0.1-0.2-0.1-0.5-0.2-0.5c-0.2,0-0.2,0.3-0.3,0.5
			l-5.3,13.4c-0.1,0.2,0,0.4,0.2,0.4H709.4z"/>
		<path class="st2" d="M734.6,137.3c0-8,0-9.5-0.1-11.2c-0.1-1.8-0.7-2.4-1.9-2.8c-0.6-0.2-1.3-0.2-2-0.2c-0.6,0-0.9-0.1-0.9-0.6
			c0-0.3,0.4-0.4,1.3-0.4c2.1,0,5.8,0.1,7.3,0.1c1.4,0,4.9-0.1,7-0.1c0.7,0,1.1,0.1,1.1,0.4c0,0.5-0.3,0.6-0.9,0.6
			c-0.6,0-1,0.1-1.6,0.2c-1.5,0.2-1.9,1-2.1,2.9c-0.1,1.7-0.1,3.2-0.1,11.2v9.3c0,5.1,0,9.3,0.2,11.6c0.2,1.4,0.6,2.2,2.2,2.5
			c0.7,0.1,2,0.2,2.8,0.2c0.6,0,0.9,0.3,0.9,0.6c0,0.4-0.4,0.6-1.1,0.6c-3.6,0-7.3-0.2-8.8-0.2c-1.2,0-5,0.2-7.2,0.2
			c-0.7,0-1.1-0.2-1.1-0.6c0-0.2,0.2-0.6,0.9-0.6c0.8,0,1.4-0.1,1.9-0.2c1.1-0.2,1.4-1,1.6-2.6c0.2-2.2,0.2-6.4,0.2-11.5V137.3z"/>
		<path class="st2" d="M763.4,154.8c0.1,4.1,0.8,5.4,1.9,5.7c0.9,0.3,2,0.4,2.9,0.4c0.6,0,0.9,0.2,0.9,0.6c0,0.4-0.5,0.6-1.2,0.6
			c-3.5,0-6.1-0.2-7.1-0.2c-0.5,0-3.1,0.2-5.9,0.2c-0.7,0-1.2-0.1-1.2-0.6c0-0.3,0.4-0.6,0.9-0.6c0.7,0,1.7-0.1,2.5-0.2
			c1.4-0.4,1.6-1.8,1.7-6.4l0.5-31.4c0-1.1,0.4-1.8,0.9-1.8c0.7,0,1.4,0.8,2.4,1.7c0.7,0.7,8.9,9.1,16.9,16.9
			c3.7,3.7,11,11.1,11.8,11.9h0.2l-0.6-23.5c-0.1-3.2-0.6-4.2-1.9-4.7c-0.8-0.3-2.1-0.3-2.9-0.3c-0.7,0-0.9-0.2-0.9-0.6
			c0-0.4,0.6-0.5,1.4-0.5c2.9,0,5.8,0.1,7,0.1c0.6,0,2.7-0.1,5.4-0.1c0.7,0,1.2,0.1,1.2,0.5c0,0.3-0.3,0.6-0.9,0.6
			c-0.6,0-1,0-1.7,0.2c-1.5,0.4-1.9,1.4-2,4.4l-0.6,33.4c0,1.2-0.4,1.7-0.9,1.7c-0.9,0-1.7-0.6-2.2-1.1c-3.4-3.2-10.3-9.7-16-15.3
			c-6-5.7-11.8-12.1-12.8-13.1h-0.2L763.4,154.8z"/>
		<path class="st2" d="M840,143.9c0,8,0,12.3,1.3,13.4c1.1,0.9,2.7,1.4,7.5,1.4c3.3,0,5.7-0.1,7.3-1.7c0.7-0.8,1.5-2.6,1.6-3.7
			c0.1-0.6,0.2-0.9,0.7-0.9c0.4,0,0.5,0.3,0.5,1.1c0,0.7-0.4,5.4-0.9,7.2c-0.4,1.4-0.7,1.7-3.9,1.7c-4.5,0-7.7-0.1-10.5-0.2
			c-2.8-0.1-5-0.2-7.6-0.2c-0.7,0-2.1,0-3.5,0.1c-1.4,0-3.1,0.1-4.3,0.1c-0.8,0-1.2-0.2-1.2-0.6c0-0.3,0.2-0.5,1-0.5
			c0.9,0,1.7-0.1,2.2-0.2c1.2-0.2,1.6-1.6,1.8-3.4c0.3-2.6,0.3-7.5,0.3-13.3v-11c0-9.5,0-11.2-0.1-13.2c-0.1-2.1-0.6-3.1-2.7-3.5
			c-0.5-0.1-1.2-0.2-2.1-0.2c-0.7,0-1.1-0.1-1.1-0.6s0.4-0.6,1.4-0.6c2.9,0,6.8,0.2,8.5,0.2c1.5,0,6-0.2,8.5-0.2
			c0.9,0,1.3,0.1,1.3,0.6s-0.4,0.6-1.1,0.6c-0.7,0-1.7,0.1-2.4,0.2c-1.7,0.3-2.2,1.4-2.3,3.5c-0.1,2-0.1,3.7-0.1,13.2V143.9z"/>
		<path class="st2" d="M872.3,148.7c-0.3,0-0.4,0.1-0.5,0.4l-2.9,7.1c-0.6,1.3-0.8,2.6-0.8,3.2c0,0.9,0.5,1.5,2.2,1.5h0.8
			c0.7,0,0.8,0.2,0.8,0.6c0,0.4-0.3,0.6-0.9,0.6c-1.8,0-4.4-0.2-6.1-0.2c-0.6,0-3.5,0.2-6.4,0.2c-0.7,0-1-0.1-1-0.6
			c0-0.3,0.2-0.6,0.6-0.6c0.5,0,1.1-0.1,1.6-0.1c2.5-0.4,3.4-2,4.5-4.7l14.3-33.3c0.6-1.5,1.1-2.1,1.6-2.1c0.8,0,1.1,0.5,1.6,1.7
			c1.3,2.9,10.5,24.6,13.9,32.6c2.1,4.8,3.7,5.5,4.7,5.7c0.8,0.1,1.4,0.2,2.1,0.2c0.5,0,0.7,0.2,0.7,0.6c0,0.4-0.3,0.6-2.4,0.6
			c-1.9,0-5.9,0-10.5-0.1c-1-0.1-1.6-0.1-1.6-0.4c0-0.3,0.1-0.5,0.7-0.6c0.4-0.1,0.7-0.6,0.5-1.2l-4.2-10.6
			c-0.1-0.3-0.3-0.4-0.6-0.4H872.3z M884,145.7c0.2,0,0.3-0.1,0.2-0.3l-5.2-13.4c-0.1-0.2-0.1-0.5-0.2-0.5c-0.2,0-0.2,0.3-0.3,0.5
			l-5.3,13.4c-0.1,0.2,0,0.4,0.2,0.4H884z"/>
		<path class="st2" d="M901.4,127.1c-0.7-1.9-1.1-3.2-1.9-3.7c-0.6-0.4-1.6-0.4-2.1-0.4c-0.6,0-0.9-0.2-0.9-0.6
			c0-0.4,0.4-0.5,1.2-0.5c2.8,0,5.9,0.1,6.3,0.1s3.2-0.1,6.3-0.1c0.8,0,1.2,0.1,1.2,0.5c0,0.4-0.4,0.6-1,0.6c-0.4,0-0.9,0.1-1.4,0.2
			c-0.5,0.2-0.6,0.5-0.6,1.1c0,0.7,0.5,2.4,1.2,4.9c0.9,3.5,5.9,19.5,6.7,21.9h0.2l10.5-27c0.6-1.5,1.1-1.9,1.6-1.9
			c0.6,0,1.1,0.8,1.8,2.5l11,26.1h0.2c1.1-3.1,5.2-17,7.2-23.2c0.4-1.2,0.6-2.3,0.6-3.1c0-0.9-0.5-1.5-2.7-1.5
			c-0.5,0-0.9-0.2-0.9-0.6c0-0.4,0.4-0.5,1.3-0.5c2.9,0,5.4,0.1,5.9,0.1c0.4,0,2.7-0.1,4.5-0.1c0.6,0,1,0.1,1,0.4
			c0,0.4-0.2,0.6-0.7,0.6c-0.6,0-1.3,0.1-1.9,0.2c-1.3,0.5-1.9,2.5-3.1,5.5c-2.6,6.7-8.2,23.5-10.8,31.4c-0.6,1.9-0.9,2.5-1.7,2.5
			c-0.7,0-1.1-0.6-1.9-2.6L927.2,134h-0.1c-0.9,2.2-8.3,21-10.5,25.8c-1,2.2-1.3,2.8-2.1,2.8c-0.7,0-1-0.6-1.5-1.9L901.4,127.1z"/>
	</g>
</g>
</svg>
